<svg width="152" height="56" viewBox="0 0 152 56" fill="none" xmlns="http://www.w3.org/2000/svg">
<path d="M45.676 34.39V33.89H45.176H38.2956L40.3432 22.014H47.914H48.414V21.514V13.818V13.318H47.914H41.8473L43.7448 2.28475L43.8453 1.70001H43.252H35.334H34.9126L34.8412 2.11527L32.9146 13.318H21.8673L23.7648 2.28475L23.8653 1.70001H23.272H15.354H14.9326L14.8612 2.11527L12.9346 13.318H4.62399H4.12399V13.818V21.514V22.014H4.62399H11.4304L9.38282 33.89H1.88599H1.38599V34.39V42.086V42.586H1.88599H7.88115L5.98087 53.9173L5.88315 54.5H6.47399H14.392H14.8151L14.8851 54.0827L16.8131 42.586H27.8612L25.9609 53.9173L25.8632 54.5H26.454H34.372H34.7951L34.8651 54.0827L36.7931 42.586H45.176H45.676V42.086V34.39ZM134.351 54V54.5H134.851H143.583H144.083V54V42.882H150.983H151.483V42.382V34.908V34.408H150.983H144.083V1.83001V1.33001H143.583H135.813H135.581L135.431 1.50715L106.645 35.5471L106.478 35.7453L106.544 35.9964L108.246 42.5084L108.343 42.882H108.729H134.351V54ZM18.1675 34.112L20.2892 21.792H31.6325L29.5107 34.112H18.1675ZM77.5284 55.388C91.5104 55.388 100.672 43.0768 100.672 28.1V27.952C100.672 12.9749 91.5842 0.812012 77.6764 0.812012C63.6945 0.812012 54.5324 13.1232 54.5324 28.1V28.248C54.5324 43.2239 63.5457 55.388 77.5284 55.388ZM77.6764 46.174C73.8389 46.174 70.67 44.1921 68.4414 40.9342C66.2066 37.6674 64.9304 33.1281 64.9304 28.1V27.952C64.9304 22.9227 66.1887 18.4207 68.3953 15.1916C70.5952 11.9721 73.7266 10.026 77.5284 10.026C81.3281 10.026 84.4976 12.007 86.7363 15.2666C88.9804 18.534 90.2744 23.0734 90.2744 28.1V28.248C90.2744 33.2398 89.0164 37.7422 86.8093 40.9812C84.6083 44.211 81.4766 46.174 77.6764 46.174ZM134.351 34.408H118.896L134.351 15.7949V34.408Z" stroke="#C4C4C4"/>
<path d="M45.676 34.39V33.89H45.176H38.2956L40.3432 22.014H47.914H48.414V21.514V13.818V13.318H47.914H41.8473L43.7448 2.28475L43.8453 1.70001H43.252H35.334H34.9126L34.8412 2.11527L32.9146 13.318H21.8673L23.7648 2.28475L23.8653 1.70001H23.272H15.354H14.9326L14.8612 2.11527L12.9346 13.318H4.62399H4.12399V13.818V21.514V22.014H4.62399H11.4304L9.38282 33.89H1.88599H1.38599V34.39V42.086V42.586H1.88599H7.88115L5.98087 53.9173L5.88315 54.5H6.47399H14.392H14.8151L14.8851 54.0827L16.8131 42.586H27.8612L25.9609 53.9173L25.8632 54.5H26.454H34.372H34.7951L34.8651 54.0827L36.7931 42.586H45.176H45.676V42.086V34.39ZM134.351 54V54.5H134.851H143.583H144.083V54V42.882H150.983H151.483V42.382V34.908V34.408H150.983H144.083V1.83001V1.33001H143.583H135.813H135.581L135.431 1.50715L106.645 35.5471L106.478 35.7453L106.544 35.9964L108.246 42.5084L108.343 42.882H108.729H134.351V54ZM18.1675 34.112L20.2892 21.792H31.6325L29.5107 34.112H18.1675ZM77.5284 55.388C91.5104 55.388 100.672 43.0768 100.672 28.1V27.952C100.672 12.9749 91.5842 0.812012 77.6764 0.812012C63.6945 0.812012 54.5324 13.1232 54.5324 28.1V28.248C54.5324 43.2239 63.5457 55.388 77.5284 55.388ZM77.6764 46.174C73.8389 46.174 70.67 44.1921 68.4414 40.9342C66.2066 37.6674 64.9304 33.1281 64.9304 28.1V27.952C64.9304 22.9227 66.1887 18.4207 68.3953 15.1916C70.5952 11.9721 73.7266 10.026 77.5284 10.026C81.3281 10.026 84.4976 12.007 86.7363 15.2666C88.9804 18.534 90.2744 23.0734 90.2744 28.1V28.248C90.2744 33.2398 89.0164 37.7422 86.8093 40.9812C84.6083 44.211 81.4766 46.174 77.6764 46.174ZM134.351 34.408H118.896L134.351 15.7949V34.408Z" stroke="#7240FF"/>
<path d="M45.676 34.39V33.89H45.176H38.2956L40.3432 22.014H47.914H48.414V21.514V13.818V13.318H47.914H41.8473L43.7448 2.28475L43.8453 1.70001H43.252H35.334H34.9126L34.8412 2.11527L32.9146 13.318H21.8673L23.7648 2.28475L23.8653 1.70001H23.272H15.354H14.9326L14.8612 2.11527L12.9346 13.318H4.62399H4.12399V13.818V21.514V22.014H4.62399H11.4304L9.38282 33.89H1.88599H1.38599V34.39V42.086V42.586H1.88599H7.88115L5.98087 53.9173L5.88315 54.5H6.47399H14.392H14.8151L14.8851 54.0827L16.8131 42.586H27.8612L25.9609 53.9173L25.8632 54.5H26.454H34.372H34.7951L34.8651 54.0827L36.7931 42.586H45.176H45.676V42.086V34.39ZM134.351 54V54.5H134.851H143.583H144.083V54V42.882H150.983H151.483V42.382V34.908V34.408H150.983H144.083V1.83001V1.33001H143.583H135.813H135.581L135.431 1.50715L106.645 35.5471L106.478 35.7453L106.544 35.9964L108.246 42.5084L108.343 42.882H108.729H134.351V54ZM18.1675 34.112L20.2892 21.792H31.6325L29.5107 34.112H18.1675ZM77.5284 55.388C91.5104 55.388 100.672 43.0768 100.672 28.1V27.952C100.672 12.9749 91.5842 0.812012 77.6764 0.812012C63.6945 0.812012 54.5324 13.1232 54.5324 28.1V28.248C54.5324 43.2239 63.5457 55.388 77.5284 55.388ZM77.6764 46.174C73.8389 46.174 70.67 44.1921 68.4414 40.9342C66.2066 37.6674 64.9304 33.1281 64.9304 28.1V27.952C64.9304 22.9227 66.1887 18.4207 68.3953 15.1916C70.5952 11.9721 73.7266 10.026 77.5284 10.026C81.3281 10.026 84.4976 12.007 86.7363 15.2666C88.9804 18.534 90.2744 23.0734 90.2744 28.1V28.248C90.2744 33.2398 89.0164 37.7422 86.8093 40.9812C84.6083 44.211 81.4766 46.174 77.6764 46.174ZM134.351 34.408H118.896L134.351 15.7949V34.408Z" stroke="url(#paint0_linear_321_1034)"/>
<defs>
<linearGradient id="paint0_linear_321_1034" x1="1.88599" y1="1.31201" x2="122.943" y2="92.2254" gradientUnits="userSpaceOnUse">
<stop stop-color="#911357" stop-opacity="0.92"/>
<stop offset="1" stop-opacity="0"/>
</linearGradient>
</defs>
</svg>
