<svg width="148" height="56" viewBox="0 0 148 56" fill="none" xmlns="http://www.w3.org/2000/svg">
<path d="M45.676 34.39V33.89H45.176H38.2956L40.3432 22.014H47.914H48.414V21.514V13.818V13.318H47.914H41.8473L43.7448 2.28475L43.8453 1.70001H43.252H35.334H34.9126L34.8412 2.11527L32.9146 13.318H21.8673L23.7648 2.28475L23.8653 1.70001H23.272H15.354H14.9326L14.8612 2.11527L12.9346 13.318H4.62399H4.12399V13.818V21.514V22.014H4.62399H11.4304L9.38282 33.89H1.88599H1.38599V34.39V42.086V42.586H1.88599H7.88115L5.98087 53.9173L5.88315 54.5H6.47399H14.392H14.8151L14.8851 54.0827L16.8131 42.586H27.8612L25.9609 53.9173L25.8632 54.5H26.454H34.372H34.7951L34.8651 54.0827L36.7931 42.586H45.176H45.676V42.086V34.39ZM143.805 10.84H144.305V10.34V2.20001V1.70001H143.805H112.799H112.328L112.3 2.1709L110.82 27.5529L110.803 27.8401L111.043 27.9989L116.519 31.6249L116.754 31.7804L117.009 31.6601C119.631 30.4221 122.664 29.414 126.341 29.414C129.406 29.414 131.971 30.2075 133.757 31.6022C135.532 32.9874 136.571 34.9879 136.571 37.498V37.646C136.571 40.213 135.609 42.3102 133.931 43.7718C132.246 45.2391 129.8 46.1 126.785 46.1C122.152 46.1 117.902 43.8213 113.805 40.0176L113.424 39.6629L113.085 40.0593L107.461 46.6453L107.154 47.0049L107.496 47.3316C112.528 52.1381 118.714 55.388 126.859 55.388C132.694 55.388 137.632 53.6177 141.116 50.4576C144.606 47.2934 146.599 42.7702 146.599 37.35V37.202C146.599 31.593 144.547 27.3758 141.165 24.5702C137.795 21.7753 133.157 20.422 128.043 20.422C124.839 20.422 122.61 20.917 120.379 21.6777L121.111 10.84H143.805ZM18.1675 34.112L20.2892 21.792H31.6325L29.5107 34.112H18.1675ZM77.5284 55.388C91.5104 55.388 100.672 43.0768 100.672 28.1V27.952C100.672 12.9749 91.5842 0.812012 77.6764 0.812012C63.6945 0.812012 54.5324 13.1232 54.5324 28.1V28.248C54.5324 43.2239 63.5457 55.388 77.5284 55.388ZM77.6764 46.174C73.8389 46.174 70.67 44.1921 68.4414 40.9342C66.2066 37.6674 64.9304 33.1281 64.9304 28.1V27.952C64.9304 22.9227 66.1887 18.4207 68.3953 15.1916C70.5952 11.9721 73.7266 10.026 77.5284 10.026C81.3281 10.026 84.4976 12.007 86.7363 15.2666C88.9804 18.534 90.2744 23.0734 90.2744 28.1V28.248C90.2744 33.2398 89.0164 37.7422 86.8093 40.9812C84.6083 44.211 81.4766 46.174 77.6764 46.174Z" stroke="#C4C4C4"/>
<path d="M45.676 34.39V33.89H45.176H38.2956L40.3432 22.014H47.914H48.414V21.514V13.818V13.318H47.914H41.8473L43.7448 2.28475L43.8453 1.70001H43.252H35.334H34.9126L34.8412 2.11527L32.9146 13.318H21.8673L23.7648 2.28475L23.8653 1.70001H23.272H15.354H14.9326L14.8612 2.11527L12.9346 13.318H4.62399H4.12399V13.818V21.514V22.014H4.62399H11.4304L9.38282 33.89H1.88599H1.38599V34.39V42.086V42.586H1.88599H7.88115L5.98087 53.9173L5.88315 54.5H6.47399H14.392H14.8151L14.8851 54.0827L16.8131 42.586H27.8612L25.9609 53.9173L25.8632 54.5H26.454H34.372H34.7951L34.8651 54.0827L36.7931 42.586H45.176H45.676V42.086V34.39ZM143.805 10.84H144.305V10.34V2.20001V1.70001H143.805H112.799H112.328L112.3 2.1709L110.82 27.5529L110.803 27.8401L111.043 27.9989L116.519 31.6249L116.754 31.7804L117.009 31.6601C119.631 30.4221 122.664 29.414 126.341 29.414C129.406 29.414 131.971 30.2075 133.757 31.6022C135.532 32.9874 136.571 34.9879 136.571 37.498V37.646C136.571 40.213 135.609 42.3102 133.931 43.7718C132.246 45.2391 129.8 46.1 126.785 46.1C122.152 46.1 117.902 43.8213 113.805 40.0176L113.424 39.6629L113.085 40.0593L107.461 46.6453L107.154 47.0049L107.496 47.3316C112.528 52.1381 118.714 55.388 126.859 55.388C132.694 55.388 137.632 53.6177 141.116 50.4576C144.606 47.2934 146.599 42.7702 146.599 37.35V37.202C146.599 31.593 144.547 27.3758 141.165 24.5702C137.795 21.7753 133.157 20.422 128.043 20.422C124.839 20.422 122.61 20.917 120.379 21.6777L121.111 10.84H143.805ZM18.1675 34.112L20.2892 21.792H31.6325L29.5107 34.112H18.1675ZM77.5284 55.388C91.5104 55.388 100.672 43.0768 100.672 28.1V27.952C100.672 12.9749 91.5842 0.812012 77.6764 0.812012C63.6945 0.812012 54.5324 13.1232 54.5324 28.1V28.248C54.5324 43.2239 63.5457 55.388 77.5284 55.388ZM77.6764 46.174C73.8389 46.174 70.67 44.1921 68.4414 40.9342C66.2066 37.6674 64.9304 33.1281 64.9304 28.1V27.952C64.9304 22.9227 66.1887 18.4207 68.3953 15.1916C70.5952 11.9721 73.7266 10.026 77.5284 10.026C81.3281 10.026 84.4976 12.007 86.7363 15.2666C88.9804 18.534 90.2744 23.0734 90.2744 28.1V28.248C90.2744 33.2398 89.0164 37.7422 86.8093 40.9812C84.6083 44.211 81.4766 46.174 77.6764 46.174Z" stroke="#7240FF"/>
<path d="M45.676 34.39V33.89H45.176H38.2956L40.3432 22.014H47.914H48.414V21.514V13.818V13.318H47.914H41.8473L43.7448 2.28475L43.8453 1.70001H43.252H35.334H34.9126L34.8412 2.11527L32.9146 13.318H21.8673L23.7648 2.28475L23.8653 1.70001H23.272H15.354H14.9326L14.8612 2.11527L12.9346 13.318H4.62399H4.12399V13.818V21.514V22.014H4.62399H11.4304L9.38282 33.89H1.88599H1.38599V34.39V42.086V42.586H1.88599H7.88115L5.98087 53.9173L5.88315 54.5H6.47399H14.392H14.8151L14.8851 54.0827L16.8131 42.586H27.8612L25.9609 53.9173L25.8632 54.5H26.454H34.372H34.7951L34.8651 54.0827L36.7931 42.586H45.176H45.676V42.086V34.39ZM143.805 10.84H144.305V10.34V2.20001V1.70001H143.805H112.799H112.328L112.3 2.1709L110.82 27.5529L110.803 27.8401L111.043 27.9989L116.519 31.6249L116.754 31.7804L117.009 31.6601C119.631 30.4221 122.664 29.414 126.341 29.414C129.406 29.414 131.971 30.2075 133.757 31.6022C135.532 32.9874 136.571 34.9879 136.571 37.498V37.646C136.571 40.213 135.609 42.3102 133.931 43.7718C132.246 45.2391 129.8 46.1 126.785 46.1C122.152 46.1 117.902 43.8213 113.805 40.0176L113.424 39.6629L113.085 40.0593L107.461 46.6453L107.154 47.0049L107.496 47.3316C112.528 52.1381 118.714 55.388 126.859 55.388C132.694 55.388 137.632 53.6177 141.116 50.4576C144.606 47.2934 146.599 42.7702 146.599 37.35V37.202C146.599 31.593 144.547 27.3758 141.165 24.5702C137.795 21.7753 133.157 20.422 128.043 20.422C124.839 20.422 122.61 20.917 120.379 21.6777L121.111 10.84H143.805ZM18.1675 34.112L20.2892 21.792H31.6325L29.5107 34.112H18.1675ZM77.5284 55.388C91.5104 55.388 100.672 43.0768 100.672 28.1V27.952C100.672 12.9749 91.5842 0.812012 77.6764 0.812012C63.6945 0.812012 54.5324 13.1232 54.5324 28.1V28.248C54.5324 43.2239 63.5457 55.388 77.5284 55.388ZM77.6764 46.174C73.8389 46.174 70.67 44.1921 68.4414 40.9342C66.2066 37.6674 64.9304 33.1281 64.9304 28.1V27.952C64.9304 22.9227 66.1887 18.4207 68.3953 15.1916C70.5952 11.9721 73.7266 10.026 77.5284 10.026C81.3281 10.026 84.4976 12.007 86.7363 15.2666C88.9804 18.534 90.2744 23.0734 90.2744 28.1V28.248C90.2744 33.2398 89.0164 37.7422 86.8093 40.9812C84.6083 44.211 81.4766 46.174 77.6764 46.174Z" stroke="url(#paint0_linear_321_1035)"/>
<defs>
<linearGradient id="paint0_linear_321_1035" x1="1.88599" y1="1.31201" x2="121.763" y2="88.3904" gradientUnits="userSpaceOnUse">
<stop stop-color="#911357" stop-opacity="0.92"/>
<stop offset="1" stop-opacity="0"/>
</linearGradient>
</defs>
</svg>
