<svg width="150" height="56" viewBox="0 0 150 56" fill="none" xmlns="http://www.w3.org/2000/svg">
<path d="M45.676 34.39V33.89H45.176H38.2956L40.3432 22.014H47.914H48.414V21.514V13.818V13.318H47.914H41.8473L43.7448 2.28475L43.8453 1.70001H43.252H35.334H34.9126L34.8412 2.11527L32.9146 13.318H21.8673L23.7648 2.28475L23.8653 1.70001H23.272H15.354H14.9326L14.8612 2.11527L12.9346 13.318H4.62399H4.12399V13.818V21.514V22.014H4.62399H11.4304L9.38282 33.89H1.88599H1.38599V34.39V42.086V42.586H1.88599H7.88115L5.98087 53.9173L5.88315 54.5H6.47399H14.392H14.8151L14.8851 54.0827L16.8131 42.586H27.8612L25.9609 53.9173L25.8632 54.5H26.454H34.372H34.7951L34.8651 54.0827L36.7931 42.586H45.176H45.676V42.086V34.39ZM130.485 20.348C125.272 20.348 121.586 22.0912 118.624 24.8364C118.875 21.6626 119.71 18.2079 121.368 15.4443C123.239 12.3252 126.144 10.1 130.485 10.1C134.984 10.1 137.835 11.7241 141.422 14.5792L141.841 14.9132L142.145 14.4713L147.029 7.36728L147.292 6.98484L146.93 6.6942C142.346 3.01143 137.65 0.812012 130.781 0.812012C123.294 0.812012 117.595 3.99737 113.783 9.20287C109.984 14.3909 108.081 21.5532 108.081 29.506V29.654C108.081 40.1732 110.473 45.7209 114.518 49.7656C118.098 53.3458 122.743 55.388 129.301 55.388C140.405 55.388 149.041 47.96 149.041 37.276V37.128C149.041 31.8083 146.984 27.5968 143.612 24.7225C140.248 21.8558 135.612 20.348 130.485 20.348ZM18.1675 34.112L20.2892 21.792H31.6325L29.5107 34.112H18.1675ZM77.5284 55.388C91.5104 55.388 100.672 43.0768 100.672 28.1V27.952C100.672 12.9749 91.5842 0.812012 77.6764 0.812012C63.6945 0.812012 54.5324 13.1232 54.5324 28.1V28.248C54.5324 43.2239 63.5457 55.388 77.5284 55.388ZM77.6764 46.174C73.8389 46.174 70.67 44.1921 68.4414 40.9342C66.2066 37.6674 64.9304 33.1281 64.9304 28.1V27.952C64.9304 22.9227 66.1887 18.4207 68.3953 15.1916C70.5952 11.9721 73.7266 10.026 77.5284 10.026C81.3281 10.026 84.4976 12.007 86.7363 15.2666C88.9804 18.534 90.2744 23.0734 90.2744 28.1V28.248C90.2744 33.2398 89.0164 37.7422 86.8093 40.9812C84.6083 44.211 81.4766 46.174 77.6764 46.174ZM129.079 46.47C125.923 46.47 123.365 45.5204 121.603 43.9679C119.845 42.4189 118.849 40.2444 118.849 37.72V37.572C118.849 32.9342 122.649 28.97 128.857 28.97C132.018 28.97 134.539 29.8852 136.261 31.3903C137.979 32.8909 138.939 35.008 138.939 37.498V37.646C138.939 40.1855 138.025 42.3797 136.359 43.9412C134.692 45.5042 132.232 46.47 129.079 46.47Z" stroke="#C4C4C4"/>
<path d="M45.676 34.39V33.89H45.176H38.2956L40.3432 22.014H47.914H48.414V21.514V13.818V13.318H47.914H41.8473L43.7448 2.28475L43.8453 1.70001H43.252H35.334H34.9126L34.8412 2.11527L32.9146 13.318H21.8673L23.7648 2.28475L23.8653 1.70001H23.272H15.354H14.9326L14.8612 2.11527L12.9346 13.318H4.62399H4.12399V13.818V21.514V22.014H4.62399H11.4304L9.38282 33.89H1.88599H1.38599V34.39V42.086V42.586H1.88599H7.88115L5.98087 53.9173L5.88315 54.5H6.47399H14.392H14.8151L14.8851 54.0827L16.8131 42.586H27.8612L25.9609 53.9173L25.8632 54.5H26.454H34.372H34.7951L34.8651 54.0827L36.7931 42.586H45.176H45.676V42.086V34.39ZM130.485 20.348C125.272 20.348 121.586 22.0912 118.624 24.8364C118.875 21.6626 119.71 18.2079 121.368 15.4443C123.239 12.3252 126.144 10.1 130.485 10.1C134.984 10.1 137.835 11.7241 141.422 14.5792L141.841 14.9132L142.145 14.4713L147.029 7.36728L147.292 6.98484L146.93 6.6942C142.346 3.01143 137.65 0.812012 130.781 0.812012C123.294 0.812012 117.595 3.99737 113.783 9.20287C109.984 14.3909 108.081 21.5532 108.081 29.506V29.654C108.081 40.1732 110.473 45.7209 114.518 49.7656C118.098 53.3458 122.743 55.388 129.301 55.388C140.405 55.388 149.041 47.96 149.041 37.276V37.128C149.041 31.8083 146.984 27.5968 143.612 24.7225C140.248 21.8558 135.612 20.348 130.485 20.348ZM18.1675 34.112L20.2892 21.792H31.6325L29.5107 34.112H18.1675ZM77.5284 55.388C91.5104 55.388 100.672 43.0768 100.672 28.1V27.952C100.672 12.9749 91.5842 0.812012 77.6764 0.812012C63.6945 0.812012 54.5324 13.1232 54.5324 28.1V28.248C54.5324 43.2239 63.5457 55.388 77.5284 55.388ZM77.6764 46.174C73.8389 46.174 70.67 44.1921 68.4414 40.9342C66.2066 37.6674 64.9304 33.1281 64.9304 28.1V27.952C64.9304 22.9227 66.1887 18.4207 68.3953 15.1916C70.5952 11.9721 73.7266 10.026 77.5284 10.026C81.3281 10.026 84.4976 12.007 86.7363 15.2666C88.9804 18.534 90.2744 23.0734 90.2744 28.1V28.248C90.2744 33.2398 89.0164 37.7422 86.8093 40.9812C84.6083 44.211 81.4766 46.174 77.6764 46.174ZM129.079 46.47C125.923 46.47 123.365 45.5204 121.603 43.9679C119.845 42.4189 118.849 40.2444 118.849 37.72V37.572C118.849 32.9342 122.649 28.97 128.857 28.97C132.018 28.97 134.539 29.8852 136.261 31.3903C137.979 32.8909 138.939 35.008 138.939 37.498V37.646C138.939 40.1855 138.025 42.3797 136.359 43.9412C134.692 45.5042 132.232 46.47 129.079 46.47Z" stroke="#7240FF"/>
<path d="M45.676 34.39V33.89H45.176H38.2956L40.3432 22.014H47.914H48.414V21.514V13.818V13.318H47.914H41.8473L43.7448 2.28475L43.8453 1.70001H43.252H35.334H34.9126L34.8412 2.11527L32.9146 13.318H21.8673L23.7648 2.28475L23.8653 1.70001H23.272H15.354H14.9326L14.8612 2.11527L12.9346 13.318H4.62399H4.12399V13.818V21.514V22.014H4.62399H11.4304L9.38282 33.89H1.88599H1.38599V34.39V42.086V42.586H1.88599H7.88115L5.98087 53.9173L5.88315 54.5H6.47399H14.392H14.8151L14.8851 54.0827L16.8131 42.586H27.8612L25.9609 53.9173L25.8632 54.5H26.454H34.372H34.7951L34.8651 54.0827L36.7931 42.586H45.176H45.676V42.086V34.39ZM130.485 20.348C125.272 20.348 121.586 22.0912 118.624 24.8364C118.875 21.6626 119.71 18.2079 121.368 15.4443C123.239 12.3252 126.144 10.1 130.485 10.1C134.984 10.1 137.835 11.7241 141.422 14.5792L141.841 14.9132L142.145 14.4713L147.029 7.36728L147.292 6.98484L146.93 6.6942C142.346 3.01143 137.65 0.812012 130.781 0.812012C123.294 0.812012 117.595 3.99737 113.783 9.20287C109.984 14.3909 108.081 21.5532 108.081 29.506V29.654C108.081 40.1732 110.473 45.7209 114.518 49.7656C118.098 53.3458 122.743 55.388 129.301 55.388C140.405 55.388 149.041 47.96 149.041 37.276V37.128C149.041 31.8083 146.984 27.5968 143.612 24.7225C140.248 21.8558 135.612 20.348 130.485 20.348ZM18.1675 34.112L20.2892 21.792H31.6325L29.5107 34.112H18.1675ZM77.5284 55.388C91.5104 55.388 100.672 43.0768 100.672 28.1V27.952C100.672 12.9749 91.5842 0.812012 77.6764 0.812012C63.6945 0.812012 54.5324 13.1232 54.5324 28.1V28.248C54.5324 43.2239 63.5457 55.388 77.5284 55.388ZM77.6764 46.174C73.8389 46.174 70.67 44.1921 68.4414 40.9342C66.2066 37.6674 64.9304 33.1281 64.9304 28.1V27.952C64.9304 22.9227 66.1887 18.4207 68.3953 15.1916C70.5952 11.9721 73.7266 10.026 77.5284 10.026C81.3281 10.026 84.4976 12.007 86.7363 15.2666C88.9804 18.534 90.2744 23.0734 90.2744 28.1V28.248C90.2744 33.2398 89.0164 37.7422 86.8093 40.9812C84.6083 44.211 81.4766 46.174 77.6764 46.174ZM129.079 46.47C125.923 46.47 123.365 45.5204 121.603 43.9679C119.845 42.4189 118.849 40.2444 118.849 37.72V37.572C118.849 32.9342 122.649 28.97 128.857 28.97C132.018 28.97 134.539 29.8852 136.261 31.3903C137.979 32.8909 138.939 35.008 138.939 37.498V37.646C138.939 40.1855 138.025 42.3797 136.359 43.9412C134.692 45.5042 132.232 46.47 129.079 46.47Z" stroke="url(#paint0_linear_321_1036)"/>
<defs>
<linearGradient id="paint0_linear_321_1036" x1="1.88599" y1="1.31201" x2="122.372" y2="90.3145" gradientUnits="userSpaceOnUse">
<stop stop-color="#911357" stop-opacity="0.92"/>
<stop offset="1" stop-opacity="0"/>
</linearGradient>
</defs>
</svg>
