<svg width="44" height="44" viewBox="0 0 44 44" fill="none" xmlns="http://www.w3.org/2000/svg">
<mask id="mask0_313_657" style="mask-type:alpha" maskUnits="userSpaceOnUse" x="0" y="0" width="45" height="44">
<path d="M18.4999 18.4998C16.5668 20.4329 16.5668 23.5671 18.4999 25.5002C20.433 27.4333 23.5671 27.4333 25.5002 25.5002C27.4334 23.5671 27.4333 20.4329 25.5002 18.4998C23.5671 16.5667 20.433 16.5667 18.4999 18.4998" stroke="#323232" stroke-width="2" stroke-linecap="round" stroke-linejoin="round"/>
<path fill-rule="evenodd" clip-rule="evenodd" d="M34.3751 22C34.3751 22.5445 34.3256 23.089 34.2596 23.617L37.1709 25.894C37.8162 26.4 37.9922 27.3038 37.5816 28.0133L34.9929 32.4922C34.5841 33.2017 33.7151 33.5005 32.9542 33.1962L30.3472 32.1493C29.8321 31.9422 29.2582 32.0247 28.7962 32.3308C28.3929 32.5985 27.9749 32.8442 27.5422 33.0642C27.0472 33.3153 26.6879 33.7645 26.6091 34.3145L26.2112 37.0883C26.0957 37.8987 25.4009 38.5 24.5832 38.5L19.4187 38.5C18.6011 38.5 17.9062 37.8987 17.7907 37.0883L17.3929 34.3163C17.3141 33.7663 16.9511 33.3135 16.4542 33.0642C16.0234 32.8478 15.6072 32.604 15.2057 32.3382C14.7401 32.0302 14.1644 31.9422 13.6474 32.1512L11.0459 33.1962C10.2869 33.5005 9.41791 33.2017 9.00725 32.4922L6.41858 28.0133C6.00791 27.3038 6.18391 26.3982 6.82925 25.894L9.74058 23.617C9.67458 23.089 9.62508 22.5445 9.62508 22C9.62508 21.4555 9.67458 20.911 9.74058 20.383L6.82924 18.106C6.18391 17.6 6.00791 16.6962 6.41858 15.9867L9.00724 11.5078C9.41608 10.7983 10.2851 10.4995 11.0459 10.8038L13.6474 11.8488C14.1644 12.056 14.7401 11.9698 15.2057 11.6618C15.6072 11.396 16.0234 11.1522 16.4542 10.9358C16.9511 10.6865 17.3141 10.2337 17.3929 9.68367L17.7889 6.91167C17.9044 6.10134 18.5992 5.5 19.4169 5.5L24.5814 5.5C25.3991 5.5 26.0939 6.10134 26.2094 6.91167L26.6091 9.68733C26.6879 10.2355 27.0491 10.6865 27.5422 10.9377C27.9749 11.1577 28.3929 11.4052 28.7962 11.671C29.2601 11.9753 29.8339 12.0578 30.3491 11.8507L32.9542 10.8038C33.7151 10.4995 34.5841 10.7983 34.9929 11.5078L37.5816 15.9867C37.9922 16.6962 37.8162 17.6018 37.1709 18.106L34.2596 20.383C34.3256 20.911 34.3751 21.4555 34.3751 22V22Z" stroke="#323232" stroke-width="2" stroke-linecap="round" stroke-linejoin="round"/>
</mask>
<g mask="url(#mask0_313_657)">
<rect width="44" height="44" transform="matrix(1 -8.74228e-08 -8.74228e-08 -1 0 44)" fill="#7240FF"/>
<rect width="44" height="44" transform="matrix(1 -8.74228e-08 -8.74228e-08 -1 0 44)" fill="url(#paint0_linear_313_657)"/>
</g>
<defs>
<linearGradient id="paint0_linear_313_657" x1="0" y1="0" x2="52.0811" y2="14.0546" gradientUnits="userSpaceOnUse">
<stop stop-color="#911357" stop-opacity="0.92"/>
<stop offset="1" stop-opacity="0"/>
</linearGradient>
</defs>
</svg>
