<svg width="44" height="44" viewBox="0 0 44 44" fill="none" xmlns="http://www.w3.org/2000/svg">
<mask id="mask0_313_671" style="mask-type:alpha" maskUnits="userSpaceOnUse" x="0" y="0" width="45" height="44">
<path fill-rule="evenodd" clip-rule="evenodd" d="M20.8465 6.69814C21.5193 7.24249 22.481 7.24249 23.1538 6.69814C24.6243 5.52468 26.5923 5.18383 28.3718 5.79445C30.1512 6.40506 31.4953 7.88248 31.9355 9.71156C32.0911 10.4232 32.6483 10.9783 33.3605 11.1311C35.4544 11.5561 37.1996 12.995 38.016 14.9695C38.8323 16.944 38.6128 19.1952 37.4304 20.9747C37.0044 21.5986 37.0044 22.4198 37.4304 23.0436C38.6128 24.8232 38.8323 27.0744 38.016 29.0489C37.1996 31.0233 35.4544 32.4622 33.3606 32.8872C32.6483 33.0401 32.0911 33.5951 31.9355 34.3068C31.4929 36.1343 30.1478 37.6093 28.3688 38.2179C26.5897 38.8265 24.623 38.4845 23.1538 37.3111C22.481 36.7667 21.5193 36.7667 20.8465 37.3111C19.3748 38.4845 17.4053 38.8242 15.6255 38.2116C13.8457 37.599 12.5026 36.1191 12.0648 34.2885C11.9092 33.5768 11.352 33.0218 10.6398 32.8689C8.54561 32.4436 6.80034 31.0042 5.98432 29.0293C5.16829 27.0544 5.3885 24.8028 6.57173 23.0234C6.99612 22.4005 6.99612 21.5812 6.57173 20.9582C5.3885 19.1788 5.16829 16.9273 5.98431 14.9524C6.80034 12.9774 8.5456 11.538 10.6398 11.1128C11.352 10.9599 11.9092 10.4049 12.0648 9.69322C12.5074 7.86573 13.8525 6.39076 15.6316 5.78213C17.4106 5.1735 19.3773 5.51549 20.8465 6.68897L20.8465 6.69814Z" stroke="#323232" stroke-width="2" stroke-linecap="round" stroke-linejoin="round"/>
<path d="M22.0001 7.10349L22.0001 36.8947" stroke="#323232" stroke-width="2" stroke-linecap="round" stroke-linejoin="round"/>
<path d="M16.4978 29.3364C16.4978 27.3105 14.8555 25.6682 12.8296 25.6682" stroke="#323232" stroke-width="2" stroke-linecap="round" stroke-linejoin="round"/>
<path d="M27.5023 14.6636C27.5023 16.6895 29.1446 18.3318 31.1705 18.3318" stroke="#323232" stroke-width="2" stroke-linecap="round" stroke-linejoin="round"/>
<path d="M27.5025 29.3364C27.5025 27.3105 29.1448 25.6682 31.1707 25.6682" stroke="#323232" stroke-width="2" stroke-linecap="round" stroke-linejoin="round"/>
<path d="M16.4978 14.6636C16.4978 16.6895 14.8555 18.3318 12.8296 18.3318" stroke="#323232" stroke-width="2" stroke-linecap="round" stroke-linejoin="round"/>
</mask>
<g mask="url(#mask0_313_671)">
<rect width="44" height="44" transform="matrix(1 -8.74228e-08 -8.74228e-08 -1 0 44)" fill="#7240FF"/>
<rect width="44" height="44" transform="matrix(1 -8.74228e-08 -8.74228e-08 -1 0 44)" fill="url(#paint0_linear_313_671)"/>
</g>
<defs>
<linearGradient id="paint0_linear_313_671" x1="0" y1="0" x2="52.0811" y2="14.0546" gradientUnits="userSpaceOnUse">
<stop stop-color="#911357" stop-opacity="0.92"/>
<stop offset="1" stop-opacity="0"/>
</linearGradient>
</defs>
</svg>
