<svg width="38" height="188" viewBox="0 0 38 188" fill="none" xmlns="http://www.w3.org/2000/svg">
<g filter="url(#filter0_d_231_656)">
<path d="M19.5 13L21.8868 8L16.1132 8L18.5 13L19.5 13ZM18.5 159L16.1132 164L21.8867 164L19.5 159L18.5 159ZM18.5 12.5L18.5 159.5L19.5 159.5L19.5 12.5L18.5 12.5Z" fill="#C4C4C4"/>
<path d="M19.5 13L21.8868 8L16.1132 8L18.5 13L19.5 13ZM18.5 159L16.1132 164L21.8867 164L19.5 159L18.5 159ZM18.5 12.5L18.5 159.5L19.5 159.5L19.5 12.5L18.5 12.5Z" fill="#7240FF"/>
<path d="M19.5 13L21.8868 8L16.1132 8L18.5 13L19.5 13ZM18.5 159L16.1132 164L21.8867 164L19.5 159L18.5 159ZM18.5 12.5L18.5 159.5L19.5 159.5L19.5 12.5L18.5 12.5Z" fill="url(#paint0_linear_231_656)"/>
</g>
<defs>
<filter id="filter0_d_231_656" x="0.113281" y="0" width="37.7734" height="188" filterUnits="userSpaceOnUse" color-interpolation-filters="sRGB">
<feFlood flood-opacity="0" result="BackgroundImageFix"/>
<feColorMatrix in="SourceAlpha" type="matrix" values="0 0 0 0 0 0 0 0 0 0 0 0 0 0 0 0 0 0 127 0" result="hardAlpha"/>
<feOffset dy="8"/>
<feGaussianBlur stdDeviation="8"/>
<feColorMatrix type="matrix" values="0 0 0 0 0.446837 0 0 0 0 0.25219 0 0 0 0 0.999 0 0 0 0.24 0"/>
<feBlend mode="normal" in2="BackgroundImageFix" result="effect1_dropShadow_231_656"/>
<feBlend mode="normal" in="SourceGraphic" in2="effect1_dropShadow_231_656" result="shape"/>
</filter>
<linearGradient id="paint0_linear_231_656" x1="19" y1="8" x2="14.297" y2="8.11171" gradientUnits="userSpaceOnUse">
<stop stop-color="#911357" stop-opacity="0.92"/>
<stop offset="1" stop-opacity="0"/>
</linearGradient>
</defs>
</svg>
