<svg width="247" height="77" viewBox="0 0 247 77" fill="none" xmlns="http://www.w3.org/2000/svg">
<path d="M0 28.1033H9.91297V14.5119L19.8449 28.1033H24.8013L34.7332 14.5119V28.1033H44.6462V2.62652H32.255L22.3231 15.3649L12.4101 2.62652H0V28.1033Z" fill="white"/>
<path d="M50.4351 2.62652V28.1033H60.348V2.62652H50.4351Z" fill="white"/>
<path d="M90.4086 16.1231L79.247 2.62652H65.6072V28.1033H75.5202V12.5405L89.1789 28.1033H100.34V2.62652H90.4086V16.1231Z" fill="white"/>
<path d="M130.931 15.4028C130.931 17.9619 129.474 20.066 126.901 20.066H116.042V10.7397H126.901C129.474 10.7397 130.931 12.8248 130.931 15.4028ZM106.129 2.66443V28.1412H128.755C135.736 28.236 140.919 22.3217 140.863 15.4028C140.919 8.44599 135.736 2.56965 128.755 2.66443H106.129Z" fill="white"/>
<path d="M153.367 11.024C153.367 8.99571 157.151 8.54077 160.234 8.54077C163.337 8.54077 165.967 9.01467 167.102 11.024H177.488C176.542 3.06251 169.145 2.05784 160.234 2.00098C151.305 2.00098 142.981 3.74492 142.981 11.024C142.962 17.3932 152.932 17.886 160.026 18.2462C164.018 18.4358 167.102 18.6064 167.102 19.7248C167.102 21.6962 163.318 22.208 160.234 22.208C157.132 22.208 154.502 21.6962 153.367 19.7248H142.981C143.927 27.6294 151.324 28.7099 160.234 28.7288C169.164 28.7288 177.488 27.0038 177.488 19.7248C177.506 13.3366 167.537 12.8438 160.443 12.4836C156.451 12.294 153.367 12.1424 153.367 11.024Z" fill="white"/>
<path d="M180.136 28.1412H209.894V21.6014H190.049V18.341H209.894V12.4457H190.049V9.18527H209.894V2.66443H180.136V28.1412Z" fill="white"/>
<path d="M234.714 28.1412V10.7397H246.5V2.66443H213.015V10.7397H224.801V28.1412H234.714Z" fill="white"/>
<path d="M94.9416 12.4943C92.8077 10.836 90.6738 10.04 88.4733 10.04C86.2726 10.04 84.0054 10.836 81.8048 12.229C80.6045 12.9586 79.4709 13.8209 78.3373 14.8159C67.7346 17.0711 53.3309 26.4237 53.3309 38.6286C53.3309 43.7361 56.5984 47.5169 61.533 49.0425C61.4663 49.5732 61.4663 50.1038 61.4663 50.6345C61.4663 51.9611 61.5997 53.2214 61.7998 54.4153C62.9334 59.8544 67.0011 63.2373 72.6025 63.2373C72.6025 63.2373 72.6025 63.2373 72.6692 63.2373C87.1395 63.2373 96.742 40.2869 96.742 28.1483C96.742 18.862 93.3412 14.0199 85.3391 14.0199C84.8723 14.0199 84.4055 14.0199 83.872 14.0862C85.8058 12.8923 87.9397 12.0963 89.9403 12.0963C91.4074 12.0963 92.8744 12.4943 94.1414 13.4892C94.5415 13.8872 94.9416 14.0199 95.2083 14.0199C95.5417 14.0199 95.6751 13.8872 95.6751 13.6219C95.6751 13.3566 95.4751 12.9586 94.9416 12.4943ZM80.3378 16.8058C82.8051 16.2751 84.939 15.9435 86.8061 15.9435C91.8742 15.9435 94.4081 18.3977 94.4081 26.4901C94.4081 38.1643 85.2724 61.2474 71.1355 61.2474C71.1355 61.2474 71.1355 61.2474 71.0688 61.2474C65.2673 61.181 63.8003 57.0022 63.8003 52.2264C63.8003 51.4304 63.867 50.5018 63.9336 49.6395C65.1339 49.8385 66.5343 49.9711 68.0013 49.9711C70.7354 49.9711 73.9362 49.5732 77.4704 48.7109C77.6704 48.6445 77.8038 48.5119 77.8038 48.3792C77.8038 47.7822 76.6702 46.7209 75.87 46.7209C75.8033 46.7209 75.7366 46.7209 75.6699 46.7209C71.9357 47.6496 68.7349 48.0476 66.1342 48.0476C65.4007 48.0476 64.7338 48.0476 64.1337 47.9812C65.534 37.8326 72.2691 24.1022 80.3378 16.8058ZM74.9364 18.3314C68.5348 25.8268 62.7333 37.7 61.6664 47.5832C57.7321 46.5219 55.6649 44.0677 55.6649 39.9552C55.6649 30.0056 66.5343 21.3826 74.9364 18.3314ZM103.896 36.2407C102.429 38.2969 99.762 42.5421 99.762 45.8586C99.762 46.9199 100.029 47.8486 100.696 48.6445C101.362 49.3078 102.229 49.9048 103.163 49.9048C103.363 49.9048 103.563 49.8385 103.763 49.7722C105.63 49.2415 108.498 46.124 110.298 44.0677C110.298 44.2004 110.298 44.3994 110.298 44.532C110.298 46.6546 111.032 48.1139 112.499 49.0425C113.165 49.5068 113.966 49.7058 114.832 49.7058C118.834 49.7058 124.168 45.3943 126.169 43.0064C126.169 42.9401 126.235 42.8738 126.235 42.7411C126.235 42.1441 125.102 41.1492 124.502 41.1492C124.368 41.1492 124.235 41.2155 124.168 41.2818C122.835 42.8738 116.366 47.9149 113.566 47.9149C113.299 47.9149 113.032 47.8486 112.832 47.7159C112.632 47.5832 112.565 47.1853 112.565 46.5883C112.565 44.3994 113.766 39.8889 114.032 39.0929C114.099 39.0266 114.166 38.9602 114.166 38.8276C114.166 38.2306 113.165 37.1693 112.432 37.1693C112.165 37.1693 111.965 37.2356 111.765 37.501C110.031 40.0215 104.897 46.7873 102.029 47.7822C101.963 47.5832 101.963 47.3842 101.963 47.1853C101.963 44.4657 104.763 39.8889 106.097 37.9653C106.097 37.899 106.164 37.8326 106.164 37.7663C106.164 37.103 104.897 36.108 104.23 36.108C104.096 36.108 103.963 36.1744 103.896 36.2407ZM133.013 14.4842C133.013 14.4842 131.079 19.9897 128.612 27.4187C117.875 28.679 108.74 30.6689 108.673 30.6689C108.206 30.7352 108.273 31.2659 108.807 31.8629C109.273 32.3935 110.007 32.7252 110.407 32.6588C110.474 32.6588 118.342 30.9342 127.878 29.6739C123.544 42.8738 117.275 60.5177 117.675 65.3599C117.742 65.7579 118.276 66.4212 118.942 66.7528C119.543 67.0845 120.076 67.0181 120.009 66.5538C119.609 61.6454 126.411 42.5421 130.812 29.3423C140.881 28.1483 152.084 27.684 157.819 30.2709C158.419 30.5362 158.886 30.4036 158.753 29.9393C158.686 29.4749 158.086 28.8116 157.419 28.5463C151.751 25.9594 141.281 26.0921 131.546 27.087C133.68 20.653 135.28 16.0761 135.347 16.0098C135.48 15.6782 135.013 15.0148 134.413 14.6169C133.746 14.1525 133.146 14.0862 133.013 14.4842ZM146.527 41.2818C141.86 45.726 135.658 54.2826 131.724 56.9359C131.79 51.0324 139.326 32.9241 143.393 23.1072C144.594 20.255 145.861 17.8671 145.861 16.8721C145.861 16.2088 144.594 15.2802 143.927 15.2802C143.727 15.2802 143.593 15.3465 143.527 15.4792C143.193 16.4078 142.326 18.5967 141.126 21.5153C136.992 31.3985 129.39 49.7722 129.39 55.8082C129.39 57.9972 130.257 59.3238 132.19 59.3238C132.257 59.3238 132.324 59.3238 132.391 59.3238C134.658 59.1911 144.794 45.8586 148.528 43.1391C148.595 43.0727 148.595 43.0064 148.595 42.8738C148.595 42.2104 147.528 41.1492 146.861 41.1492C146.727 41.1492 146.661 41.1492 146.527 41.2818ZM148.611 36.7713C147.61 38.9602 145.477 43.5371 145.477 46.8536C145.477 47.7822 145.61 48.5782 146.01 49.1752C146.477 50.0375 147.41 50.7671 148.411 51.0324C148.677 51.0988 149.011 51.1651 149.278 51.1651C153.012 51.1651 157.946 45.6596 159.947 43.2054C160.014 43.1391 160.014 43.0064 160.014 42.8738C160.014 42.2104 159.08 41.0165 158.547 41.0165C158.48 41.0165 158.346 41.0828 158.28 41.1492C156.546 43.2717 151.011 49.1752 147.944 49.1752C147.877 49.1752 147.877 49.1752 147.81 49.1752C147.744 48.9099 147.744 48.5782 147.744 48.1802C147.744 45.3943 150.011 40.2869 150.878 38.4296C150.945 38.3633 150.945 38.2969 150.945 38.2306C150.945 37.5673 149.678 36.5723 149.011 36.5723C148.811 36.5723 148.677 36.6387 148.611 36.7713ZM152.278 35.3121L155.012 31.0006C155.012 30.9342 155.079 30.8679 155.079 30.8016C155.079 30.1383 153.812 29.1433 153.145 29.1433C152.945 29.1433 152.812 29.2096 152.745 29.3423L150.011 33.6538C150.011 33.7201 149.944 33.7864 149.944 33.8528C149.944 34.5161 151.211 35.511 151.878 35.511C152.078 35.511 152.212 35.4447 152.278 35.3121ZM158.473 46.4556C158.473 46.4556 165.608 43.8024 167.275 41.0165C167.475 40.6185 167.609 40.2205 167.609 39.8225C167.609 38.1643 165.942 36.705 164.275 36.705C164.275 36.705 164.208 36.705 164.141 36.705C160.607 36.904 155.806 42.6748 155.806 46.9863C155.806 49.1752 157.073 50.9661 160.407 51.4304C160.674 51.4304 160.941 51.4304 161.274 51.4304C167.475 51.4304 176.611 43.4707 176.678 43.4044C176.745 43.3381 176.811 43.2717 176.811 43.1391C176.811 42.4094 175.744 41.2818 175.077 41.2818C174.944 41.2818 174.877 41.2818 174.811 41.3481C171.943 43.8687 164.408 49.4405 159.874 49.4405C159.407 49.4405 159.007 49.4405 158.607 49.3078C158.073 49.1088 157.873 48.5119 157.873 47.9149C157.873 47.2516 158.14 46.5883 158.473 46.4556ZM160.274 42.8738C161.674 41.0828 163.675 39.2256 165.208 38.8276C164.808 40.2869 162.141 41.9451 160.274 42.8738ZM191.01 41.4145C187.942 44.4657 180.807 53.0887 177.607 54.6143C178.14 51.5631 184.075 43.2054 183.408 41.4145C183.008 40.4195 182.341 39.8225 181.274 39.7562C180.607 39.7562 179.007 40.4859 178.207 40.6848C179.007 39.0929 179.207 37.8326 179.007 37.0367C178.74 35.6437 177.006 34.1844 175.539 34.5824C173.072 35.3121 171.072 40.0879 174.272 42.2768C176.073 43.4707 178.34 43.2054 180.474 42.5421C179.074 45.328 174.139 52.8234 175.739 55.2113C176.139 55.8083 176.806 56.3389 177.473 56.6042C180.674 57.6655 190.01 45.9913 192.81 43.2717C193.411 42.7411 191.61 40.8175 191.01 41.4145ZM174.872 41.0165C174.672 40.8175 175.339 38.8939 175.406 38.8276C175.806 37.9653 176.273 37.302 176.673 36.9703C176.54 37.899 176.006 39.2256 174.872 41.0165Z" fill="#7240FF"/>
<path d="M94.9416 12.4943C92.8077 10.836 90.6738 10.04 88.4733 10.04C86.2726 10.04 84.0054 10.836 81.8048 12.229C80.6045 12.9586 79.4709 13.8209 78.3373 14.8159C67.7346 17.0711 53.3309 26.4237 53.3309 38.6286C53.3309 43.7361 56.5984 47.5169 61.533 49.0425C61.4663 49.5732 61.4663 50.1038 61.4663 50.6345C61.4663 51.9611 61.5997 53.2214 61.7998 54.4153C62.9334 59.8544 67.0011 63.2373 72.6025 63.2373C72.6025 63.2373 72.6025 63.2373 72.6692 63.2373C87.1395 63.2373 96.742 40.2869 96.742 28.1483C96.742 18.862 93.3412 14.0199 85.3391 14.0199C84.8723 14.0199 84.4055 14.0199 83.872 14.0862C85.8058 12.8923 87.9397 12.0963 89.9403 12.0963C91.4074 12.0963 92.8744 12.4943 94.1414 13.4892C94.5415 13.8872 94.9416 14.0199 95.2083 14.0199C95.5417 14.0199 95.6751 13.8872 95.6751 13.6219C95.6751 13.3566 95.4751 12.9586 94.9416 12.4943ZM80.3378 16.8058C82.8051 16.2751 84.939 15.9435 86.8061 15.9435C91.8742 15.9435 94.4081 18.3977 94.4081 26.4901C94.4081 38.1643 85.2724 61.2474 71.1355 61.2474C71.1355 61.2474 71.1355 61.2474 71.0688 61.2474C65.2673 61.181 63.8003 57.0022 63.8003 52.2264C63.8003 51.4304 63.867 50.5018 63.9336 49.6395C65.1339 49.8385 66.5343 49.9711 68.0013 49.9711C70.7354 49.9711 73.9362 49.5732 77.4704 48.7109C77.6704 48.6445 77.8038 48.5119 77.8038 48.3792C77.8038 47.7822 76.6702 46.7209 75.87 46.7209C75.8033 46.7209 75.7366 46.7209 75.6699 46.7209C71.9357 47.6496 68.7349 48.0476 66.1342 48.0476C65.4007 48.0476 64.7338 48.0476 64.1337 47.9812C65.534 37.8326 72.2691 24.1022 80.3378 16.8058ZM74.9364 18.3314C68.5348 25.8268 62.7333 37.7 61.6664 47.5832C57.7321 46.5219 55.6649 44.0677 55.6649 39.9552C55.6649 30.0056 66.5343 21.3826 74.9364 18.3314ZM103.896 36.2407C102.429 38.2969 99.762 42.5421 99.762 45.8586C99.762 46.9199 100.029 47.8486 100.696 48.6445C101.362 49.3078 102.229 49.9048 103.163 49.9048C103.363 49.9048 103.563 49.8385 103.763 49.7722C105.63 49.2415 108.498 46.124 110.298 44.0677C110.298 44.2004 110.298 44.3994 110.298 44.532C110.298 46.6546 111.032 48.1139 112.499 49.0425C113.165 49.5068 113.966 49.7058 114.832 49.7058C118.834 49.7058 124.168 45.3943 126.169 43.0064C126.169 42.9401 126.235 42.8738 126.235 42.7411C126.235 42.1441 125.102 41.1492 124.502 41.1492C124.368 41.1492 124.235 41.2155 124.168 41.2818C122.835 42.8738 116.366 47.9149 113.566 47.9149C113.299 47.9149 113.032 47.8486 112.832 47.7159C112.632 47.5832 112.565 47.1853 112.565 46.5883C112.565 44.3994 113.766 39.8889 114.032 39.0929C114.099 39.0266 114.166 38.9602 114.166 38.8276C114.166 38.2306 113.165 37.1693 112.432 37.1693C112.165 37.1693 111.965 37.2356 111.765 37.501C110.031 40.0215 104.897 46.7873 102.029 47.7822C101.963 47.5832 101.963 47.3842 101.963 47.1853C101.963 44.4657 104.763 39.8889 106.097 37.9653C106.097 37.899 106.164 37.8326 106.164 37.7663C106.164 37.103 104.897 36.108 104.23 36.108C104.096 36.108 103.963 36.1744 103.896 36.2407ZM133.013 14.4842C133.013 14.4842 131.079 19.9897 128.612 27.4187C117.875 28.679 108.74 30.6689 108.673 30.6689C108.206 30.7352 108.273 31.2659 108.807 31.8629C109.273 32.3935 110.007 32.7252 110.407 32.6588C110.474 32.6588 118.342 30.9342 127.878 29.6739C123.544 42.8738 117.275 60.5177 117.675 65.3599C117.742 65.7579 118.276 66.4212 118.942 66.7528C119.543 67.0845 120.076 67.0181 120.009 66.5538C119.609 61.6454 126.411 42.5421 130.812 29.3423C140.881 28.1483 152.084 27.684 157.819 30.2709C158.419 30.5362 158.886 30.4036 158.753 29.9393C158.686 29.4749 158.086 28.8116 157.419 28.5463C151.751 25.9594 141.281 26.0921 131.546 27.087C133.68 20.653 135.28 16.0761 135.347 16.0098C135.48 15.6782 135.013 15.0148 134.413 14.6169C133.746 14.1525 133.146 14.0862 133.013 14.4842ZM146.527 41.2818C141.86 45.726 135.658 54.2826 131.724 56.9359C131.79 51.0324 139.326 32.9241 143.393 23.1072C144.594 20.255 145.861 17.8671 145.861 16.8721C145.861 16.2088 144.594 15.2802 143.927 15.2802C143.727 15.2802 143.593 15.3465 143.527 15.4792C143.193 16.4078 142.326 18.5967 141.126 21.5153C136.992 31.3985 129.39 49.7722 129.39 55.8082C129.39 57.9972 130.257 59.3238 132.19 59.3238C132.257 59.3238 132.324 59.3238 132.391 59.3238C134.658 59.1911 144.794 45.8586 148.528 43.1391C148.595 43.0727 148.595 43.0064 148.595 42.8738C148.595 42.2104 147.528 41.1492 146.861 41.1492C146.727 41.1492 146.661 41.1492 146.527 41.2818ZM148.611 36.7713C147.61 38.9602 145.477 43.5371 145.477 46.8536C145.477 47.7822 145.61 48.5782 146.01 49.1752C146.477 50.0375 147.41 50.7671 148.411 51.0324C148.677 51.0988 149.011 51.1651 149.278 51.1651C153.012 51.1651 157.946 45.6596 159.947 43.2054C160.014 43.1391 160.014 43.0064 160.014 42.8738C160.014 42.2104 159.08 41.0165 158.547 41.0165C158.48 41.0165 158.346 41.0828 158.28 41.1492C156.546 43.2717 151.011 49.1752 147.944 49.1752C147.877 49.1752 147.877 49.1752 147.81 49.1752C147.744 48.9099 147.744 48.5782 147.744 48.1802C147.744 45.3943 150.011 40.2869 150.878 38.4296C150.945 38.3633 150.945 38.2969 150.945 38.2306C150.945 37.5673 149.678 36.5723 149.011 36.5723C148.811 36.5723 148.677 36.6387 148.611 36.7713ZM152.278 35.3121L155.012 31.0006C155.012 30.9342 155.079 30.8679 155.079 30.8016C155.079 30.1383 153.812 29.1433 153.145 29.1433C152.945 29.1433 152.812 29.2096 152.745 29.3423L150.011 33.6538C150.011 33.7201 149.944 33.7864 149.944 33.8528C149.944 34.5161 151.211 35.511 151.878 35.511C152.078 35.511 152.212 35.4447 152.278 35.3121ZM158.473 46.4556C158.473 46.4556 165.608 43.8024 167.275 41.0165C167.475 40.6185 167.609 40.2205 167.609 39.8225C167.609 38.1643 165.942 36.705 164.275 36.705C164.275 36.705 164.208 36.705 164.141 36.705C160.607 36.904 155.806 42.6748 155.806 46.9863C155.806 49.1752 157.073 50.9661 160.407 51.4304C160.674 51.4304 160.941 51.4304 161.274 51.4304C167.475 51.4304 176.611 43.4707 176.678 43.4044C176.745 43.3381 176.811 43.2717 176.811 43.1391C176.811 42.4094 175.744 41.2818 175.077 41.2818C174.944 41.2818 174.877 41.2818 174.811 41.3481C171.943 43.8687 164.408 49.4405 159.874 49.4405C159.407 49.4405 159.007 49.4405 158.607 49.3078C158.073 49.1088 157.873 48.5119 157.873 47.9149C157.873 47.2516 158.14 46.5883 158.473 46.4556ZM160.274 42.8738C161.674 41.0828 163.675 39.2256 165.208 38.8276C164.808 40.2869 162.141 41.9451 160.274 42.8738ZM191.01 41.4145C187.942 44.4657 180.807 53.0887 177.607 54.6143C178.14 51.5631 184.075 43.2054 183.408 41.4145C183.008 40.4195 182.341 39.8225 181.274 39.7562C180.607 39.7562 179.007 40.4859 178.207 40.6848C179.007 39.0929 179.207 37.8326 179.007 37.0367C178.74 35.6437 177.006 34.1844 175.539 34.5824C173.072 35.3121 171.072 40.0879 174.272 42.2768C176.073 43.4707 178.34 43.2054 180.474 42.5421C179.074 45.328 174.139 52.8234 175.739 55.2113C176.139 55.8083 176.806 56.3389 177.473 56.6042C180.674 57.6655 190.01 45.9913 192.81 43.2717C193.411 42.7411 191.61 40.8175 191.01 41.4145ZM174.872 41.0165C174.672 40.8175 175.339 38.8939 175.406 38.8276C175.806 37.9653 176.273 37.302 176.673 36.9703C176.54 37.899 176.006 39.2256 174.872 41.0165Z" fill="url(#paint0_linear_231_616)"/>
<path d="M94.9416 12.4943C92.8077 10.836 90.6738 10.04 88.4733 10.04C86.2726 10.04 84.0054 10.836 81.8048 12.229C80.6045 12.9586 79.4709 13.8209 78.3373 14.8159C67.7346 17.0711 53.3309 26.4237 53.3309 38.6286C53.3309 43.7361 56.5984 47.5169 61.533 49.0425C61.4663 49.5732 61.4663 50.1038 61.4663 50.6345C61.4663 51.9611 61.5997 53.2214 61.7998 54.4153C62.9334 59.8544 67.0011 63.2373 72.6025 63.2373C72.6025 63.2373 72.6025 63.2373 72.6692 63.2373C87.1395 63.2373 96.742 40.2869 96.742 28.1483C96.742 18.862 93.3412 14.0199 85.3391 14.0199C84.8723 14.0199 84.4055 14.0199 83.872 14.0862C85.8058 12.8923 87.9397 12.0963 89.9403 12.0963C91.4074 12.0963 92.8744 12.4943 94.1414 13.4892C94.5415 13.8872 94.9416 14.0199 95.2083 14.0199C95.5417 14.0199 95.6751 13.8872 95.6751 13.6219C95.6751 13.3566 95.4751 12.9586 94.9416 12.4943ZM80.3378 16.8058C82.8051 16.2751 84.939 15.9435 86.8061 15.9435C91.8742 15.9435 94.4081 18.3977 94.4081 26.4901C94.4081 38.1643 85.2724 61.2474 71.1355 61.2474C71.1355 61.2474 71.1355 61.2474 71.0688 61.2474C65.2673 61.181 63.8003 57.0022 63.8003 52.2264C63.8003 51.4304 63.867 50.5018 63.9336 49.6395C65.1339 49.8385 66.5343 49.9711 68.0013 49.9711C70.7354 49.9711 73.9362 49.5732 77.4704 48.7109C77.6704 48.6445 77.8038 48.5119 77.8038 48.3792C77.8038 47.7822 76.6702 46.7209 75.87 46.7209C75.8033 46.7209 75.7366 46.7209 75.6699 46.7209C71.9357 47.6496 68.7349 48.0476 66.1342 48.0476C65.4007 48.0476 64.7338 48.0476 64.1337 47.9812C65.534 37.8326 72.2691 24.1022 80.3378 16.8058ZM74.9364 18.3314C68.5348 25.8268 62.7333 37.7 61.6664 47.5832C57.7321 46.5219 55.6649 44.0677 55.6649 39.9552C55.6649 30.0056 66.5343 21.3826 74.9364 18.3314ZM103.896 36.2407C102.429 38.2969 99.762 42.5421 99.762 45.8586C99.762 46.9199 100.029 47.8486 100.696 48.6445C101.362 49.3078 102.229 49.9048 103.163 49.9048C103.363 49.9048 103.563 49.8385 103.763 49.7722C105.63 49.2415 108.498 46.124 110.298 44.0677C110.298 44.2004 110.298 44.3994 110.298 44.532C110.298 46.6546 111.032 48.1139 112.499 49.0425C113.165 49.5068 113.966 49.7058 114.832 49.7058C118.834 49.7058 124.168 45.3943 126.169 43.0064C126.169 42.9401 126.235 42.8738 126.235 42.7411C126.235 42.1441 125.102 41.1492 124.502 41.1492C124.368 41.1492 124.235 41.2155 124.168 41.2818C122.835 42.8738 116.366 47.9149 113.566 47.9149C113.299 47.9149 113.032 47.8486 112.832 47.7159C112.632 47.5832 112.565 47.1853 112.565 46.5883C112.565 44.3994 113.766 39.8889 114.032 39.0929C114.099 39.0266 114.166 38.9602 114.166 38.8276C114.166 38.2306 113.165 37.1693 112.432 37.1693C112.165 37.1693 111.965 37.2356 111.765 37.501C110.031 40.0215 104.897 46.7873 102.029 47.7822C101.963 47.5832 101.963 47.3842 101.963 47.1853C101.963 44.4657 104.763 39.8889 106.097 37.9653C106.097 37.899 106.164 37.8326 106.164 37.7663C106.164 37.103 104.897 36.108 104.23 36.108C104.096 36.108 103.963 36.1744 103.896 36.2407ZM133.013 14.4842C133.013 14.4842 131.079 19.9897 128.612 27.4187C117.875 28.679 108.74 30.6689 108.673 30.6689C108.206 30.7352 108.273 31.2659 108.807 31.8629C109.273 32.3935 110.007 32.7252 110.407 32.6588C110.474 32.6588 118.342 30.9342 127.878 29.6739C123.544 42.8738 117.275 60.5177 117.675 65.3599C117.742 65.7579 118.276 66.4212 118.942 66.7528C119.543 67.0845 120.076 67.0181 120.009 66.5538C119.609 61.6454 126.411 42.5421 130.812 29.3423C140.881 28.1483 152.084 27.684 157.819 30.2709C158.419 30.5362 158.886 30.4036 158.753 29.9393C158.686 29.4749 158.086 28.8116 157.419 28.5463C151.751 25.9594 141.281 26.0921 131.546 27.087C133.68 20.653 135.28 16.0761 135.347 16.0098C135.48 15.6782 135.013 15.0148 134.413 14.6169C133.746 14.1525 133.146 14.0862 133.013 14.4842ZM146.527 41.2818C141.86 45.726 135.658 54.2826 131.724 56.9359C131.79 51.0324 139.326 32.9241 143.393 23.1072C144.594 20.255 145.861 17.8671 145.861 16.8721C145.861 16.2088 144.594 15.2802 143.927 15.2802C143.727 15.2802 143.593 15.3465 143.527 15.4792C143.193 16.4078 142.326 18.5967 141.126 21.5153C136.992 31.3985 129.39 49.7722 129.39 55.8082C129.39 57.9972 130.257 59.3238 132.19 59.3238C132.257 59.3238 132.324 59.3238 132.391 59.3238C134.658 59.1911 144.794 45.8586 148.528 43.1391C148.595 43.0727 148.595 43.0064 148.595 42.8738C148.595 42.2104 147.528 41.1492 146.861 41.1492C146.727 41.1492 146.661 41.1492 146.527 41.2818ZM148.611 36.7713C147.61 38.9602 145.477 43.5371 145.477 46.8536C145.477 47.7822 145.61 48.5782 146.01 49.1752C146.477 50.0375 147.41 50.7671 148.411 51.0324C148.677 51.0988 149.011 51.1651 149.278 51.1651C153.012 51.1651 157.946 45.6596 159.947 43.2054C160.014 43.1391 160.014 43.0064 160.014 42.8738C160.014 42.2104 159.08 41.0165 158.547 41.0165C158.48 41.0165 158.346 41.0828 158.28 41.1492C156.546 43.2717 151.011 49.1752 147.944 49.1752C147.877 49.1752 147.877 49.1752 147.81 49.1752C147.744 48.9099 147.744 48.5782 147.744 48.1802C147.744 45.3943 150.011 40.2869 150.878 38.4296C150.945 38.3633 150.945 38.2969 150.945 38.2306C150.945 37.5673 149.678 36.5723 149.011 36.5723C148.811 36.5723 148.677 36.6387 148.611 36.7713ZM152.278 35.3121L155.012 31.0006C155.012 30.9342 155.079 30.8679 155.079 30.8016C155.079 30.1383 153.812 29.1433 153.145 29.1433C152.945 29.1433 152.812 29.2096 152.745 29.3423L150.011 33.6538C150.011 33.7201 149.944 33.7864 149.944 33.8528C149.944 34.5161 151.211 35.511 151.878 35.511C152.078 35.511 152.212 35.4447 152.278 35.3121ZM158.473 46.4556C158.473 46.4556 165.608 43.8024 167.275 41.0165C167.475 40.6185 167.609 40.2205 167.609 39.8225C167.609 38.1643 165.942 36.705 164.275 36.705C164.275 36.705 164.208 36.705 164.141 36.705C160.607 36.904 155.806 42.6748 155.806 46.9863C155.806 49.1752 157.073 50.9661 160.407 51.4304C160.674 51.4304 160.941 51.4304 161.274 51.4304C167.475 51.4304 176.611 43.4707 176.678 43.4044C176.745 43.3381 176.811 43.2717 176.811 43.1391C176.811 42.4094 175.744 41.2818 175.077 41.2818C174.944 41.2818 174.877 41.2818 174.811 41.3481C171.943 43.8687 164.408 49.4405 159.874 49.4405C159.407 49.4405 159.007 49.4405 158.607 49.3078C158.073 49.1088 157.873 48.5119 157.873 47.9149C157.873 47.2516 158.14 46.5883 158.473 46.4556ZM160.274 42.8738C161.674 41.0828 163.675 39.2256 165.208 38.8276C164.808 40.2869 162.141 41.9451 160.274 42.8738ZM191.01 41.4145C187.942 44.4657 180.807 53.0887 177.607 54.6143C178.14 51.5631 184.075 43.2054 183.408 41.4145C183.008 40.4195 182.341 39.8225 181.274 39.7562C180.607 39.7562 179.007 40.4859 178.207 40.6848C179.007 39.0929 179.207 37.8326 179.007 37.0367C178.74 35.6437 177.006 34.1844 175.539 34.5824C173.072 35.3121 171.072 40.0879 174.272 42.2768C176.073 43.4707 178.34 43.2054 180.474 42.5421C179.074 45.328 174.139 52.8234 175.739 55.2113C176.139 55.8083 176.806 56.3389 177.473 56.6042C180.674 57.6655 190.01 45.9913 192.81 43.2717C193.411 42.7411 191.61 40.8175 191.01 41.4145ZM174.872 41.0165C174.672 40.8175 175.339 38.8939 175.406 38.8276C175.806 37.9653 176.273 37.302 176.673 36.9703C176.54 37.899 176.006 39.2256 174.872 41.0165Z" fill="white" fill-opacity="0.9" style="mix-blend-mode:overlay"/>
<defs>
<linearGradient id="paint0_linear_231_616" x1="53.3309" y1="10.04" x2="176.604" y2="91.6285" gradientUnits="userSpaceOnUse">
<stop stop-color="#911357" stop-opacity="0.92"/>
<stop offset="1" stop-opacity="0"/>
</linearGradient>
</defs>
</svg>
