<svg width="125" height="37" viewBox="0 0 125 37" fill="none" xmlns="http://www.w3.org/2000/svg">
<g filter="url(#filter0_d_239_706)">
<path fill-rule="evenodd" clip-rule="evenodd" d="M18.9473 24.235L13.637 27L14.7399 20.88L10.7368 16.392L16.3738 15.621L18.9473 10L21.5209 15.621L27.1579 16.392L23.1548 20.88L24.2577 27L18.9473 24.235Z" stroke="#7240FF" stroke-width="1.5" stroke-linecap="round" stroke-linejoin="round"/>
<path fill-rule="evenodd" clip-rule="evenodd" d="M18.9473 24.235L13.637 27L14.7399 20.88L10.7368 16.392L16.3738 15.621L18.9473 10L21.5209 15.621L27.1579 16.392L23.1548 20.88L24.2577 27L18.9473 24.235Z" stroke="url(#paint0_linear_239_706)" stroke-width="1.5" stroke-linecap="round" stroke-linejoin="round"/>
<path fill-rule="evenodd" clip-rule="evenodd" d="M18.9473 24.235L13.637 27L14.7399 20.88L10.7368 16.392L16.3738 15.621L18.9473 10L21.5209 15.621L27.1579 16.392L23.1548 20.88L24.2577 27L18.9473 24.235Z" stroke="url(#paint1_linear_239_706)" stroke-width="1.5" stroke-linecap="round" stroke-linejoin="round"/>
</g>
<g filter="url(#filter1_d_239_706)">
<path fill-rule="evenodd" clip-rule="evenodd" d="M40.8421 24.235L35.5317 27L36.6347 20.88L32.6316 16.392L38.2686 15.621L40.8421 10L43.4157 15.621L49.0526 16.392L45.0496 20.88L46.1525 27L40.8421 24.235Z" stroke="#7240FF" stroke-width="1.5" stroke-linecap="round" stroke-linejoin="round"/>
<path fill-rule="evenodd" clip-rule="evenodd" d="M40.8421 24.235L35.5317 27L36.6347 20.88L32.6316 16.392L38.2686 15.621L40.8421 10L43.4157 15.621L49.0526 16.392L45.0496 20.88L46.1525 27L40.8421 24.235Z" stroke="url(#paint2_linear_239_706)" stroke-width="1.5" stroke-linecap="round" stroke-linejoin="round"/>
<path fill-rule="evenodd" clip-rule="evenodd" d="M40.8421 24.235L35.5317 27L36.6347 20.88L32.6316 16.392L38.2686 15.621L40.8421 10L43.4157 15.621L49.0526 16.392L45.0496 20.88L46.1525 27L40.8421 24.235Z" stroke="url(#paint3_linear_239_706)" stroke-width="1.5" stroke-linecap="round" stroke-linejoin="round"/>
</g>
<g filter="url(#filter2_d_239_706)">
<path fill-rule="evenodd" clip-rule="evenodd" d="M62.7369 24.235L57.4265 27L58.5295 20.88L54.5264 16.392L60.1633 15.621L62.7369 10L65.3104 15.621L70.9474 16.392L66.9443 20.88L68.0473 27L62.7369 24.235Z" stroke="#7240FF" stroke-width="1.5" stroke-linecap="round" stroke-linejoin="round"/>
<path fill-rule="evenodd" clip-rule="evenodd" d="M62.7369 24.235L57.4265 27L58.5295 20.88L54.5264 16.392L60.1633 15.621L62.7369 10L65.3104 15.621L70.9474 16.392L66.9443 20.88L68.0473 27L62.7369 24.235Z" stroke="url(#paint4_linear_239_706)" stroke-width="1.5" stroke-linecap="round" stroke-linejoin="round"/>
<path fill-rule="evenodd" clip-rule="evenodd" d="M62.7369 24.235L57.4265 27L58.5295 20.88L54.5264 16.392L60.1633 15.621L62.7369 10L65.3104 15.621L70.9474 16.392L66.9443 20.88L68.0473 27L62.7369 24.235Z" stroke="url(#paint5_linear_239_706)" stroke-width="1.5" stroke-linecap="round" stroke-linejoin="round"/>
</g>
<g filter="url(#filter3_d_239_706)">
<path fill-rule="evenodd" clip-rule="evenodd" d="M84.6317 24.235L79.3213 27L80.4242 20.88L76.4211 16.392L82.0581 15.621L84.6317 10L87.2052 15.621L92.8422 16.392L88.8391 20.88L89.9421 27L84.6317 24.235Z" stroke="#7240FF" stroke-width="1.5" stroke-linecap="round" stroke-linejoin="round"/>
<path fill-rule="evenodd" clip-rule="evenodd" d="M84.6317 24.235L79.3213 27L80.4242 20.88L76.4211 16.392L82.0581 15.621L84.6317 10L87.2052 15.621L92.8422 16.392L88.8391 20.88L89.9421 27L84.6317 24.235Z" stroke="url(#paint6_linear_239_706)" stroke-width="1.5" stroke-linecap="round" stroke-linejoin="round"/>
<path fill-rule="evenodd" clip-rule="evenodd" d="M84.6317 24.235L79.3213 27L80.4242 20.88L76.4211 16.392L82.0581 15.621L84.6317 10L87.2052 15.621L92.8422 16.392L88.8391 20.88L89.9421 27L84.6317 24.235Z" stroke="url(#paint7_linear_239_706)" stroke-width="1.5" stroke-linecap="round" stroke-linejoin="round"/>
</g>
<g filter="url(#filter4_d_239_706)">
<path fill-rule="evenodd" clip-rule="evenodd" d="M106.526 24.235L101.216 27L102.319 20.88L98.3157 16.392L103.953 15.621L106.526 10L109.1 15.621L114.737 16.392L110.734 20.88L111.837 27L106.526 24.235Z" stroke="#7240FF" stroke-width="1.5" stroke-linecap="round" stroke-linejoin="round"/>
<path fill-rule="evenodd" clip-rule="evenodd" d="M106.526 24.235L101.216 27L102.319 20.88L98.3157 16.392L103.953 15.621L106.526 10L109.1 15.621L114.737 16.392L110.734 20.88L111.837 27L106.526 24.235Z" stroke="url(#paint8_linear_239_706)" stroke-width="1.5" stroke-linecap="round" stroke-linejoin="round"/>
<path fill-rule="evenodd" clip-rule="evenodd" d="M106.526 24.235L101.216 27L102.319 20.88L98.3157 16.392L103.953 15.621L106.526 10L109.1 15.621L114.737 16.392L110.734 20.88L111.837 27L106.526 24.235Z" stroke="url(#paint9_linear_239_706)" stroke-width="1.5" stroke-linecap="round" stroke-linejoin="round"/>
</g>
<defs>
<filter id="filter0_d_239_706" x="-1" y="-2" width="39.8948" height="42" filterUnits="userSpaceOnUse" color-interpolation-filters="sRGB">
<feFlood flood-opacity="0" result="BackgroundImageFix"/>
<feColorMatrix in="SourceAlpha" type="matrix" values="0 0 0 0 0 0 0 0 0 0 0 0 0 0 0 0 0 0 127 0" result="hardAlpha"/>
<feOffset/>
<feGaussianBlur stdDeviation="4.5"/>
<feColorMatrix type="matrix" values="0 0 0 0 0.941176 0 0 0 0 0.486275 0 0 0 0 0.188235 0 0 0 1 0"/>
<feBlend mode="normal" in2="BackgroundImageFix" result="effect1_dropShadow_239_706"/>
<feBlend mode="normal" in="SourceGraphic" in2="effect1_dropShadow_239_706" result="shape"/>
</filter>
<filter id="filter1_d_239_706" x="20.8948" y="-2" width="39.8948" height="42" filterUnits="userSpaceOnUse" color-interpolation-filters="sRGB">
<feFlood flood-opacity="0" result="BackgroundImageFix"/>
<feColorMatrix in="SourceAlpha" type="matrix" values="0 0 0 0 0 0 0 0 0 0 0 0 0 0 0 0 0 0 127 0" result="hardAlpha"/>
<feOffset/>
<feGaussianBlur stdDeviation="4.5"/>
<feColorMatrix type="matrix" values="0 0 0 0 0.941176 0 0 0 0 0.486275 0 0 0 0 0.188235 0 0 0 1 0"/>
<feBlend mode="normal" in2="BackgroundImageFix" result="effect1_dropShadow_239_706"/>
<feBlend mode="normal" in="SourceGraphic" in2="effect1_dropShadow_239_706" result="shape"/>
</filter>
<filter id="filter2_d_239_706" x="42.7896" y="-2" width="39.8948" height="42" filterUnits="userSpaceOnUse" color-interpolation-filters="sRGB">
<feFlood flood-opacity="0" result="BackgroundImageFix"/>
<feColorMatrix in="SourceAlpha" type="matrix" values="0 0 0 0 0 0 0 0 0 0 0 0 0 0 0 0 0 0 127 0" result="hardAlpha"/>
<feOffset/>
<feGaussianBlur stdDeviation="4.5"/>
<feColorMatrix type="matrix" values="0 0 0 0 0.941176 0 0 0 0 0.486275 0 0 0 0 0.188235 0 0 0 1 0"/>
<feBlend mode="normal" in2="BackgroundImageFix" result="effect1_dropShadow_239_706"/>
<feBlend mode="normal" in="SourceGraphic" in2="effect1_dropShadow_239_706" result="shape"/>
</filter>
<filter id="filter3_d_239_706" x="64.6843" y="-2" width="39.8948" height="42" filterUnits="userSpaceOnUse" color-interpolation-filters="sRGB">
<feFlood flood-opacity="0" result="BackgroundImageFix"/>
<feColorMatrix in="SourceAlpha" type="matrix" values="0 0 0 0 0 0 0 0 0 0 0 0 0 0 0 0 0 0 127 0" result="hardAlpha"/>
<feOffset/>
<feGaussianBlur stdDeviation="4.5"/>
<feColorMatrix type="matrix" values="0 0 0 0 0.941176 0 0 0 0 0.486275 0 0 0 0 0.188235 0 0 0 1 0"/>
<feBlend mode="normal" in2="BackgroundImageFix" result="effect1_dropShadow_239_706"/>
<feBlend mode="normal" in="SourceGraphic" in2="effect1_dropShadow_239_706" result="shape"/>
</filter>
<filter id="filter4_d_239_706" x="86.5789" y="-2" width="39.8948" height="42" filterUnits="userSpaceOnUse" color-interpolation-filters="sRGB">
<feFlood flood-opacity="0" result="BackgroundImageFix"/>
<feColorMatrix in="SourceAlpha" type="matrix" values="0 0 0 0 0 0 0 0 0 0 0 0 0 0 0 0 0 0 127 0" result="hardAlpha"/>
<feOffset/>
<feGaussianBlur stdDeviation="4.5"/>
<feColorMatrix type="matrix" values="0 0 0 0 0.941176 0 0 0 0 0.486275 0 0 0 0 0.188235 0 0 0 1 0"/>
<feBlend mode="normal" in2="BackgroundImageFix" result="effect1_dropShadow_239_706"/>
<feBlend mode="normal" in="SourceGraphic" in2="effect1_dropShadow_239_706" result="shape"/>
</filter>
<linearGradient id="paint0_linear_239_706" x1="10.7368" y1="10" x2="30.2625" y2="15.0898" gradientUnits="userSpaceOnUse">
<stop stop-color="#911357" stop-opacity="0.92"/>
<stop offset="1" stop-opacity="0"/>
</linearGradient>
<linearGradient id="paint1_linear_239_706" x1="18.9473" y1="10" x2="18.9473" y2="27" gradientUnits="userSpaceOnUse">
<stop stop-color="#F09231"/>
<stop offset="0.0001" stop-color="#F09231"/>
<stop offset="1" stop-color="#F06C2D"/>
</linearGradient>
<linearGradient id="paint2_linear_239_706" x1="32.6316" y1="10" x2="52.1573" y2="15.0898" gradientUnits="userSpaceOnUse">
<stop stop-color="#911357" stop-opacity="0.92"/>
<stop offset="1" stop-opacity="0"/>
</linearGradient>
<linearGradient id="paint3_linear_239_706" x1="40.8421" y1="10" x2="40.8421" y2="27" gradientUnits="userSpaceOnUse">
<stop stop-color="#F09231"/>
<stop offset="0.0001" stop-color="#F09231"/>
<stop offset="1" stop-color="#F06C2D"/>
</linearGradient>
<linearGradient id="paint4_linear_239_706" x1="54.5264" y1="10" x2="74.0521" y2="15.0898" gradientUnits="userSpaceOnUse">
<stop stop-color="#911357" stop-opacity="0.92"/>
<stop offset="1" stop-opacity="0"/>
</linearGradient>
<linearGradient id="paint5_linear_239_706" x1="62.7369" y1="10" x2="62.7369" y2="27" gradientUnits="userSpaceOnUse">
<stop stop-color="#F09231"/>
<stop offset="0.0001" stop-color="#F09231"/>
<stop offset="1" stop-color="#F06C2D"/>
</linearGradient>
<linearGradient id="paint6_linear_239_706" x1="76.4211" y1="10" x2="95.9468" y2="15.0898" gradientUnits="userSpaceOnUse">
<stop stop-color="#911357" stop-opacity="0.92"/>
<stop offset="1" stop-opacity="0"/>
</linearGradient>
<linearGradient id="paint7_linear_239_706" x1="84.6317" y1="10" x2="84.6317" y2="27" gradientUnits="userSpaceOnUse">
<stop stop-color="#F09231"/>
<stop offset="0.0001" stop-color="#F09231"/>
<stop offset="1" stop-color="#F06C2D"/>
</linearGradient>
<linearGradient id="paint8_linear_239_706" x1="98.3157" y1="10" x2="117.841" y2="15.0898" gradientUnits="userSpaceOnUse">
<stop stop-color="#911357" stop-opacity="0.92"/>
<stop offset="1" stop-opacity="0"/>
</linearGradient>
<linearGradient id="paint9_linear_239_706" x1="106.526" y1="10" x2="106.526" y2="27" gradientUnits="userSpaceOnUse">
<stop stop-color="#F09231"/>
<stop offset="0.0001" stop-color="#F09231"/>
<stop offset="1" stop-color="#F06C2D"/>
</linearGradient>
</defs>
</svg>
